<svg width="256" height="256" viewBox="0 0 256 256" fill="none" xmlns="http://www.w3.org/2000/svg">
  <defs>
    <linearGradient id="bg" x1="36" y1="20" x2="220" y2="236" gradientUnits="userSpaceOnUse">
      <stop stop-color="#34B3F1"/>
      <stop offset="1" stop-color="#1E8FDE"/>
    </linearGradient>
    <linearGradient id="plane" x1="78" y1="78" x2="174" y2="174" gradientUnits="userSpaceOnUse">
      <stop stop-color="#FFFFFF"/>
      <stop offset="1" stop-color="#DFF3FF"/>
    </linearGradient>
  </defs>
  <circle cx="128" cy="128" r="112" fill="url(#bg)"/>
  <circle cx="128" cy="128" r="108" stroke="#ffffff" stroke-opacity="0.32" stroke-width="2"/>
  <path d="M72 126.5L176.5 83.5C181.1 81.6 185.5 86 183.7 90.6L140.7 195.1C138.8 199.7 132.3 200.2 129.7 195.9L109.4 162.1L75.6 141.8C71.3 139.2 71.8 132.7 76.4 130.8L72 126.5Z" fill="url(#plane)"/>
  <path d="M109.4 162.1L124.2 147.3L140.7 195.1C138.8 199.7 132.3 200.2 129.7 195.9L109.4 162.1Z" fill="#C7E8FC"/>
  <path d="M75.6 141.8L168.2 90.6L124.2 147.3L109.4 162.1L75.6 141.8Z" fill="#F7FCFF"/>
</svg>
